<svg width="1450" height="10" viewBox="0 0 1450 10" fill="none" xmlns="http://www.w3.org/2000/svg">
<circle cx="5" cy="5" r="5" fill="white"/>
<circle cx="275" cy="5" r="5" fill="white"/>
<circle cx="545" cy="5" r="5" fill="white"/>
<circle cx="95" cy="5" r="5" fill="white"/>
<circle cx="365" cy="5" r="5" fill="white"/>
<circle cx="635" cy="5" r="5" fill="white"/>
<circle cx="887" cy="5" r="5" fill="white"/>
<circle cx="1211" cy="5" r="5" fill="white"/>
<circle cx="185" cy="5" r="5" fill="white"/>
<circle cx="455" cy="5" r="5" fill="white"/>
<circle cx="725" cy="5" r="5" fill="white"/>
<circle cx="977" cy="5" r="5" fill="white"/>
<circle cx="1301" cy="5" r="5" fill="white"/>
<circle cx="1427" cy="5" r="5" fill="white"/>
<circle cx="23" cy="5" r="5" fill="white"/>
<circle cx="293" cy="5" r="5" fill="white"/>
<circle cx="563" cy="5" r="5" fill="white"/>
<circle cx="815" cy="5" r="5" fill="white"/>
<circle cx="1139" cy="5" r="5" fill="white"/>
<circle cx="113" cy="5" r="5" fill="white"/>
<circle cx="383" cy="5" r="5" fill="white"/>
<circle cx="653" cy="5" r="5" fill="white"/>
<circle cx="905" cy="5" r="5" fill="white"/>
<circle cx="1229" cy="5" r="5" fill="white"/>
<circle cx="203" cy="5" r="5" fill="white"/>
<circle cx="473" cy="5" r="5" fill="white"/>
<circle cx="743" cy="5" r="5" fill="white"/>
<circle cx="1067" cy="5" r="5" fill="white"/>
<circle cx="995" cy="5" r="5" fill="white"/>
<circle cx="1319" cy="5" r="5" fill="white"/>
<circle cx="1445" cy="5" r="5" fill="white"/>
<circle cx="41" cy="5" r="5" fill="white"/>
<circle cx="311" cy="5" r="5" fill="white"/>
<circle cx="581" cy="5" r="5" fill="white"/>
<circle cx="833" cy="5" r="5" fill="white"/>
<circle cx="1157" cy="5" r="5" fill="white"/>
<circle cx="131" cy="5" r="5" fill="white"/>
<circle cx="401" cy="5" r="5" fill="white"/>
<circle cx="671" cy="5" r="5" fill="white"/>
<circle cx="923" cy="5" r="5" fill="white"/>
<circle cx="1247" cy="5" r="5" fill="white"/>
<circle cx="221" cy="5" r="5" fill="white"/>
<circle cx="491" cy="5" r="5" fill="white"/>
<circle cx="761" cy="5" r="5" fill="white"/>
<circle cx="1085" cy="5" r="5" fill="white"/>
<circle cx="1013" cy="5" r="5" fill="white"/>
<circle cx="1337" cy="5" r="5" fill="white"/>
<circle cx="59" cy="5" r="5" fill="white"/>
<circle cx="329" cy="5" r="5" fill="white"/>
<circle cx="599" cy="5" r="5" fill="white"/>
<circle cx="851" cy="5" r="5" fill="white"/>
<circle cx="1175" cy="5" r="5" fill="white"/>
<circle cx="149" cy="5" r="5" fill="white"/>
<circle cx="419" cy="5" r="5" fill="white"/>
<circle cx="689" cy="5" r="5" fill="white"/>
<circle cx="941" cy="5" r="5" fill="white"/>
<circle cx="1265" cy="5" r="5" fill="white"/>
<circle cx="1391" cy="5" r="5" fill="white"/>
<circle cx="239" cy="5" r="5" fill="white"/>
<circle cx="509" cy="5" r="5" fill="white"/>
<circle cx="779" cy="5" r="5" fill="white"/>
<circle cx="1103" cy="5" r="5" fill="white"/>
<circle cx="1031" cy="5" r="5" fill="white"/>
<circle cx="1355" cy="5" r="5" fill="white"/>
<circle cx="77" cy="5" r="5" fill="white"/>
<circle cx="347" cy="5" r="5" fill="white"/>
<circle cx="617" cy="5" r="5" fill="white"/>
<circle cx="869" cy="5" r="5" fill="white"/>
<circle cx="1193" cy="5" r="5" fill="white"/>
<circle cx="167" cy="5" r="5" fill="white"/>
<circle cx="437" cy="5" r="5" fill="white"/>
<circle cx="707" cy="5" r="5" fill="white"/>
<circle cx="959" cy="5" r="5" fill="white"/>
<circle cx="1283" cy="5" r="5" fill="white"/>
<circle cx="1409" cy="5" r="5" fill="white"/>
<circle cx="257" cy="5" r="5" fill="white"/>
<circle cx="527" cy="5" r="5" fill="white"/>
<circle cx="797" cy="5" r="5" fill="white"/>
<circle cx="1121" cy="5" r="5" fill="white"/>
<circle cx="1049" cy="5" r="5" fill="white"/>
<circle cx="1373" cy="5" r="5" fill="white"/>
</svg>
