<svg width="1439" height="10" viewBox="0 0 1439 10" fill="none" xmlns="http://www.w3.org/2000/svg">
<g filter="url(#filter0_i)">
<g filter="url(#filter1_i)">
<ellipse cx="1366.2" cy="5" rx="4.72729" ry="5" fill="white"/>
<ellipse cx="1383.22" cy="5" rx="4.72736" ry="5" fill="white"/>
<ellipse cx="1400.24" cy="5" rx="4.72736" ry="5" fill="white"/>
<ellipse cx="1417.25" cy="5" rx="4.72736" ry="5" fill="white"/>
<ellipse cx="4.72733" cy="5" rx="4.72733" ry="5" fill="white"/>
<ellipse cx="174.911" cy="5" rx="4.72733" ry="5" fill="white"/>
<ellipse cx="345.095" cy="5" rx="4.72734" ry="5" fill="white"/>
<ellipse cx="515.279" cy="5" rx="4.72734" ry="5" fill="white"/>
<ellipse cx="685.463" cy="5" rx="4.72733" ry="5" fill="white"/>
<ellipse cx="855.647" cy="5" rx="4.72733" ry="5" fill="white"/>
<ellipse cx="1025.83" cy="5" rx="4.72733" ry="5" fill="white"/>
<ellipse cx="1196.02" cy="5" rx="4.72736" ry="5" fill="white"/>
<ellipse cx="21.7457" cy="5" rx="4.72733" ry="5" fill="white"/>
<ellipse cx="191.93" cy="5" rx="4.72733" ry="5" fill="white"/>
<ellipse cx="362.114" cy="5" rx="4.72733" ry="5" fill="white"/>
<ellipse cx="532.298" cy="5" rx="4.72733" ry="5" fill="white"/>
<ellipse cx="702.482" cy="5" rx="4.72733" ry="5" fill="white"/>
<ellipse cx="872.666" cy="5" rx="4.72729" ry="5" fill="white"/>
<ellipse cx="1042.85" cy="5" rx="4.72736" ry="5" fill="white"/>
<ellipse cx="1213.03" cy="5" rx="4.72729" ry="5" fill="white"/>
<ellipse cx="38.7641" cy="5" rx="4.72733" ry="5" fill="white"/>
<ellipse cx="208.948" cy="5" rx="4.72733" ry="5" fill="white"/>
<ellipse cx="379.132" cy="5" rx="4.72733" ry="5" fill="white"/>
<ellipse cx="549.316" cy="5" rx="4.72736" ry="5" fill="white"/>
<ellipse cx="719.5" cy="5" rx="4.72733" ry="5" fill="white"/>
<ellipse cx="889.684" cy="5" rx="4.72733" ry="5" fill="white"/>
<ellipse cx="1059.87" cy="5" rx="4.72729" ry="5" fill="white"/>
<ellipse cx="1230.05" cy="5" rx="4.72736" ry="5" fill="white"/>
<ellipse cx="55.7825" cy="5" rx="4.72733" ry="5" fill="white"/>
<ellipse cx="225.966" cy="5" rx="4.72733" ry="5" fill="white"/>
<ellipse cx="396.15" cy="5" rx="4.72733" ry="5" fill="white"/>
<ellipse cx="566.334" cy="5" rx="4.72733" ry="5" fill="white"/>
<ellipse cx="736.518" cy="5" rx="4.72736" ry="5" fill="white"/>
<ellipse cx="906.702" cy="5" rx="4.72733" ry="5" fill="white"/>
<ellipse cx="1076.89" cy="5" rx="4.72736" ry="5" fill="white"/>
<ellipse cx="1247.07" cy="5" rx="4.72729" ry="5" fill="white"/>
<ellipse cx="72.8009" cy="5" rx="4.72733" ry="5" fill="white"/>
<ellipse cx="242.985" cy="5" rx="4.72734" ry="5" fill="white"/>
<ellipse cx="413.169" cy="5" rx="4.72733" ry="5" fill="white"/>
<ellipse cx="583.353" cy="5" rx="4.72733" ry="5" fill="white"/>
<ellipse cx="753.537" cy="5" rx="4.72733" ry="5" fill="white"/>
<ellipse cx="923.721" cy="5" rx="4.72729" ry="5" fill="white"/>
<ellipse cx="1093.9" cy="5" rx="4.72736" ry="5" fill="white"/>
<ellipse cx="1264.09" cy="5" rx="4.72729" ry="5" fill="white"/>
<ellipse cx="89.8193" cy="5" rx="4.72733" ry="5" fill="white"/>
<ellipse cx="260.003" cy="5" rx="4.72733" ry="5" fill="white"/>
<ellipse cx="430.187" cy="5" rx="4.72734" ry="5" fill="white"/>
<ellipse cx="600.371" cy="5" rx="4.72736" ry="5" fill="white"/>
<ellipse cx="770.555" cy="5" rx="4.72736" ry="5" fill="white"/>
<ellipse cx="940.739" cy="5" rx="4.72733" ry="5" fill="white"/>
<ellipse cx="1110.92" cy="5" rx="4.72729" ry="5" fill="white"/>
<ellipse cx="1281.11" cy="5" rx="4.72736" ry="5" fill="white"/>
<ellipse cx="106.838" cy="5" rx="4.72733" ry="5" fill="white"/>
<ellipse cx="277.022" cy="5" rx="4.72734" ry="5" fill="white"/>
<ellipse cx="447.206" cy="5" rx="4.72734" ry="5" fill="white"/>
<ellipse cx="617.39" cy="5" rx="4.72736" ry="5" fill="white"/>
<ellipse cx="787.574" cy="5" rx="4.72736" ry="5" fill="white"/>
<ellipse cx="957.758" cy="5" rx="4.72733" ry="5" fill="white"/>
<ellipse cx="1127.94" cy="5" rx="4.72736" ry="5" fill="white"/>
<ellipse cx="1298.13" cy="5" rx="4.72729" ry="5" fill="white"/>
<ellipse cx="123.856" cy="5" rx="4.72734" ry="5" fill="white"/>
<ellipse cx="294.04" cy="5" rx="4.72734" ry="5" fill="white"/>
<ellipse cx="464.224" cy="5" rx="4.72734" ry="5" fill="white"/>
<ellipse cx="634.408" cy="5" rx="4.72733" ry="5" fill="white"/>
<ellipse cx="804.592" cy="5" rx="4.72733" ry="5" fill="white"/>
<ellipse cx="974.776" cy="5" rx="4.72736" ry="5" fill="white"/>
<ellipse cx="1144.96" cy="5" rx="4.72736" ry="5" fill="white"/>
<ellipse cx="1315.14" cy="5" rx="4.72736" ry="5" fill="white"/>
<ellipse cx="140.875" cy="5" rx="4.72733" ry="5" fill="white"/>
<ellipse cx="311.058" cy="5" rx="4.72733" ry="5" fill="white"/>
<ellipse cx="481.242" cy="5" rx="4.72734" ry="5" fill="white"/>
<ellipse cx="651.426" cy="5" rx="4.72733" ry="5" fill="white"/>
<ellipse cx="821.61" cy="5" rx="4.72733" ry="5" fill="white"/>
<ellipse cx="991.794" cy="5" rx="4.72736" ry="5" fill="white"/>
<ellipse cx="1161.98" cy="5" rx="4.72736" ry="5" fill="white"/>
<ellipse cx="1332.16" cy="5" rx="4.72736" ry="5" fill="white"/>
<ellipse cx="157.893" cy="5" rx="4.72733" ry="5" fill="white"/>
<ellipse cx="328.077" cy="5" rx="4.72734" ry="5" fill="white"/>
<ellipse cx="498.261" cy="5" rx="4.72734" ry="5" fill="white"/>
<ellipse cx="668.445" cy="5" rx="4.72736" ry="5" fill="white"/>
<ellipse cx="838.629" cy="5" rx="4.72736" ry="5" fill="white"/>
<ellipse cx="1008.81" cy="5" rx="4.72733" ry="5" fill="white"/>
<ellipse cx="1179" cy="5" rx="4.72736" ry="5" fill="white"/>
<ellipse cx="1434.27" cy="5" rx="4.72729" ry="5" fill="white"/>
<ellipse cx="1349.18" cy="5" rx="4.72736" ry="5" fill="white"/>
</g>
</g>
<defs>
<filter id="filter0_i" x="0" y="0" width="1439" height="11" filterUnits="userSpaceOnUse" color-interpolation-filters="sRGB">
<feFlood flood-opacity="0" result="BackgroundImageFix"/>
<feBlend mode="normal" in="SourceGraphic" in2="BackgroundImageFix" result="shape"/>
<feColorMatrix in="SourceAlpha" type="matrix" values="0 0 0 0 0 0 0 0 0 0 0 0 0 0 0 0 0 0 127 0" result="hardAlpha"/>
<feOffset dy="1"/>
<feGaussianBlur stdDeviation="1"/>
<feComposite in2="hardAlpha" operator="arithmetic" k2="-1" k3="1"/>
<feColorMatrix type="matrix" values="0 0 0 0 0 0 0 0 0 0 0 0 0 0 0 0 0 0 0.1 0"/>
<feBlend mode="normal" in2="shape" result="effect1_innerShadow"/>
</filter>
<filter id="filter1_i" x="0" y="0" width="1439" height="11" filterUnits="userSpaceOnUse" color-interpolation-filters="sRGB">
<feFlood flood-opacity="0" result="BackgroundImageFix"/>
<feBlend mode="normal" in="SourceGraphic" in2="BackgroundImageFix" result="shape"/>
<feColorMatrix in="SourceAlpha" type="matrix" values="0 0 0 0 0 0 0 0 0 0 0 0 0 0 0 0 0 0 127 0" result="hardAlpha"/>
<feOffset dy="1"/>
<feGaussianBlur stdDeviation="1"/>
<feComposite in2="hardAlpha" operator="arithmetic" k2="-1" k3="1"/>
<feColorMatrix type="matrix" values="0 0 0 0 0 0 0 0 0 0 0 0 0 0 0 0 0 0 0.1 0"/>
<feBlend mode="normal" in2="shape" result="effect1_innerShadow"/>
</filter>
</defs>
</svg>
