<svg width="388" height="10" viewBox="0 0 388 10" fill="none" xmlns="http://www.w3.org/2000/svg">
<circle cx="5" cy="5" r="5" fill="#F4F4F4"/>
<circle cx="23" cy="5" r="5" fill="#F4F4F4"/>
<circle cx="41" cy="5" r="5" fill="#F4F4F4"/>
<circle cx="59" cy="5" r="5" fill="#F4F4F4"/>
<circle cx="77" cy="5" r="5" fill="#F4F4F4"/>
<circle cx="95" cy="5" r="5" fill="#F4F4F4"/>
<circle cx="113" cy="5" r="5" fill="#F4F4F4"/>
<circle cx="131" cy="5" r="5" fill="#F4F4F4"/>
<circle cx="149" cy="5" r="5" fill="#F4F4F4"/>
<circle cx="167" cy="5" r="5" fill="#F4F4F4"/>
<circle cx="185" cy="5" r="5" fill="#F4F4F4"/>
<circle cx="203" cy="5" r="5" fill="#F4F4F4"/>
<circle cx="221" cy="5" r="5" fill="#F4F4F4"/>
<circle cx="239" cy="5" r="5" fill="#F4F4F4"/>
<circle cx="257" cy="5" r="5" fill="#F4F4F4"/>
<circle cx="275" cy="5" r="5" fill="#F4F4F4"/>
<circle cx="293" cy="5" r="5" fill="#F4F4F4"/>
<circle cx="311" cy="5" r="5" fill="#F4F4F4"/>
<circle cx="329" cy="5" r="5" fill="#F4F4F4"/>
<circle cx="347" cy="5" r="5" fill="#F4F4F4"/>
<circle cx="365" cy="5" r="5" fill="#F4F4F4"/>
<circle cx="383" cy="5" r="5" fill="#F4F4F4"/>
</svg>
